<svg xmlns="http://www.w3.org/2000/svg" enable-background="new 0 0 24 24" viewBox="0 0 24 24"><path fill="#303c42" d="M12.5,6.001c0.035,0,0.07-0.003,0.104-0.011C15.218,5.433,17.025,3.173,17,0.496   c-0.001-0.15-0.07-0.292-0.188-0.385c-0.117-0.094-0.27-0.132-0.417-0.099C13.782,0.569,11.975,2.829,12,5.506   c0.001,0.15,0.07,0.292,0.187,0.385C12.277,5.963,12.387,6.001,12.5,6.001z"/><path fill="#fff" d="M12.344,5.85c-0.025-2.677,1.782-4.937,4.396-5.494   c0.077-0.018,0.155-0.013,0.229,0.006c-0.029-0.097-0.076-0.187-0.156-0.251c-0.117-0.094-0.27-0.132-0.417-0.099   C13.782,0.569,11.975,2.829,12,5.506c0.001,0.15,0.07,0.292,0.187,0.385c0.055,0.044,0.12,0.071,0.187,0.089   C12.362,5.937,12.344,5.895,12.344,5.85z" opacity=".2"/><path fill="#303c42" d="M21.67,16.531c-1.835-0.664-2.67-2.555-2.67-4.03c0-1.587,0.826-3.027,2.21-3.852   c0.129-0.077,0.216-0.207,0.239-0.355c0.022-0.148-0.023-0.298-0.124-0.41C19.746,6.136,17.615,6,17,6   c-0.975,0-1.671,0.264-2.343,0.52C14.005,6.768,13.39,7.001,12.5,7.001s-1.505-0.233-2.157-0.481C9.671,6.265,8.975,6,8,6   c-0.614,0-6,0.196-6,7C2,18.565,5.796,24,8,24c1.349,0,2.125-0.315,2.81-0.594c0.535-0.217,0.998-0.405,1.69-0.405   s1.155,0.188,1.69,0.405C14.875,23.684,15.651,24,17,24c1.791,0,3.9-3.527,4.976-6.845C22.059,16.899,21.924,16.622,21.67,16.531z"/><path fill="#fff" d="M2.354,13.355c0-6.804,5.386-7,6-7c0.975,0,1.671,0.264,2.343,0.52   c0.651,0.248,1.267,0.481,2.157,0.481s1.505-0.233,2.157-0.481c0.672-0.255,1.368-0.52,2.343-0.52c0.574,0,2.46,0.136,3.993,1.568   c-0.009-0.012-0.012-0.028-0.022-0.039C19.746,6.136,17.615,6,17,6c-0.975,0-1.671,0.264-2.343,0.52   C14.005,6.768,13.39,7.001,12.5,7.001s-1.505-0.233-2.157-0.481C9.671,6.265,8.975,6,8,6c-0.614,0-6,0.196-6,7   c0,4.053,2.014,8.028,3.96,9.893C4.132,20.907,2.354,17.162,2.354,13.355z" opacity=".2"/><linearGradient id="a" x1="3.365" x2="22.332" y1="7.918" y2="16.762" gradientUnits="userSpaceOnUse"><stop offset="0" stop-color="#fff" stop-opacity=".2"/><stop offset="1" stop-color="#fff" stop-opacity="0"/></linearGradient><path fill="url(#a)" d="M12.5,6.001c0.035,0,0.07-0.003,0.104-0.011C15.218,5.433,17.025,3.173,17,0.496   c-0.001-0.15-0.07-0.292-0.188-0.385c-0.117-0.094-0.27-0.132-0.417-0.099C13.782,0.569,11.975,2.829,12,5.506   c0.001,0.15,0.07,0.292,0.187,0.385C12.277,5.963,12.387,6.001,12.5,6.001z M21.67,16.531c-1.835-0.664-2.67-2.555-2.67-4.03   c0-1.587,0.826-3.027,2.21-3.852c0.129-0.077,0.216-0.207,0.239-0.355c0.022-0.148-0.023-0.298-0.124-0.41   C19.746,6.136,17.615,6,17,6c-0.975,0-1.671,0.264-2.343,0.52C14.005,6.768,13.39,7.001,12.5,7.001s-1.505-0.233-2.157-0.481   C9.671,6.265,8.975,6,8,6c-0.614,0-6,0.196-6,7C2,18.565,5.796,24,8,24c1.349,0,2.125-0.315,2.81-0.594   c0.535-0.217,0.998-0.405,1.69-0.405s1.155,0.188,1.69,0.405C14.875,23.685,15.651,24,17,24c1.791,0,3.9-3.527,4.976-6.845   C22.059,16.899,21.924,16.622,21.67,16.531z"/></svg>